<?xml version="1.0" standalone="no"?>
<!DOCTYPE svg PUBLIC "-//W3C//DTD SVG 20010904//EN"
 "http://www.w3.org/TR/2001/REC-SVG-20010904/DTD/svg10.dtd">
<svg version="1.0" xmlns="http://www.w3.org/2000/svg"
 width="1024.000000pt" height="1024.000000pt" viewBox="0 0 1024.000000 1024.000000"
 preserveAspectRatio="xMidYMid meet">
<metadata>
Created by potrace 1.14, written by Peter Selinger 2001-2017
</metadata>
<g transform="translate(0.000000,1024.000000) scale(0.100000,-0.100000)"
fill="#000000" stroke="none">
<path d="M4838 9685 c-2 -2 -47 -6 -100 -10 -53 -3 -105 -7 -115 -9 -10 -2
-45 -7 -78 -10 -110 -13 -202 -27 -301 -47 -28 -5 -64 -12 -80 -15 -16 -3 -38
-7 -49 -9 -21 -3 -182 -43 -279 -69 -131 -35 -403 -132 -523 -187 -24 -10 -45
-19 -47 -19 -11 0 -238 -110 -321 -155 -470 -257 -844 -552 -1225 -965 -118
-128 -322 -399 -430 -570 -29 -47 -63 -101 -75 -120 -58 -90 -174 -316 -235
-455 -12 -27 -27 -63 -35 -80 -56 -127 -169 -447 -182 -514 -2 -14 -6 -28 -9
-33 -9 -14 -62 -238 -84 -358 -12 -63 -24 -124 -26 -135 -2 -11 -7 -40 -10
-65 -3 -25 -7 -52 -9 -60 -2 -8 -7 -46 -10 -85 -4 -38 -8 -81 -11 -95 -23
-131 -23 -787 0 -920 3 -14 7 -52 11 -85 32 -308 141 -750 262 -1065 147 -385
351 -762 587 -1085 205 -281 448 -544 712 -772 73 -63 250 -201 314 -246 102
-72 292 -194 375 -242 123 -71 429 -225 447 -225 8 0 18 -4 23 -9 13 -11 275
-111 385 -146 139 -44 266 -79 330 -91 14 -3 34 -8 45 -11 24 -8 18 -7 130
-28 115 -22 113 -21 160 -29 57 -9 103 -16 155 -22 25 -2 54 -6 66 -8 156 -28
746 -29 975 -1 170 21 200 25 259 36 30 6 66 12 80 15 102 19 152 30 274 60
141 35 336 94 391 119 17 7 48 18 70 25 22 7 58 21 80 30 22 10 65 28 95 40
74 30 181 79 200 91 8 5 26 14 40 19 14 6 32 14 40 18 8 5 51 28 95 52 66 35
161 90 253 145 94 57 405 276 432 305 3 3 18 16 34 28 157 120 471 429 592
581 10 13 33 40 50 60 98 114 246 321 380 531 79 125 232 419 307 590 166 381
290 845 332 1235 3 22 7 58 10 80 26 195 26 716 0 950 -17 159 -44 337 -60
407 -2 13 -7 34 -9 48 -2 14 -12 57 -21 95 -9 39 -19 81 -21 95 -10 54 -85
301 -124 410 -156 437 -390 871 -647 1205 -479 620 -1042 1069 -1738 1385
-262 119 -683 257 -905 297 -14 2 -41 8 -60 13 -19 5 -55 12 -80 15 -25 3 -52
8 -60 10 -19 5 -77 13 -138 20 -26 3 -54 8 -62 10 -8 2 -46 7 -85 10 -38 4
-88 9 -110 11 -48 5 -632 13 -637 9z"/>
</g>
</svg>
