<?xml version="1.0" standalone="no"?>
<!DOCTYPE svg PUBLIC "-//W3C//DTD SVG 20010904//EN"
 "http://www.w3.org/TR/2001/REC-SVG-20010904/DTD/svg10.dtd">
<svg version="1.0" xmlns="http://www.w3.org/2000/svg"
 width="512.000000pt" height="512.000000pt" viewBox="0 0 512.000000 512.000000"
 preserveAspectRatio="xMidYMid meet">
<metadata>
Created by potrace 1.14, written by Peter Selinger 2001-2017
</metadata>
<g transform="translate(0.000000,512.000000) scale(0.100000,-0.100000)"
fill="#000000" stroke="none">
<path d="M2370 4834 c-187 -17 -421 -67 -585 -124 -49 -17 -153 -62 -231 -100
-589 -286 -1023 -816 -1183 -1448 -63 -244 -88 -576 -62 -812 93 -850 641
-1574 1425 -1885 302 -120 688 -176 1006 -146 1034 99 1855 867 2037 1906 13
78 17 159 18 360 0 229 -3 275 -23 388 -86 476 -297 884 -628 1213 -412 409
-956 638 -1544 649 -102 1 -205 1 -230 -1z m497 -73 c735 -109 1347 -554 1661
-1211 138 -288 206 -559 219 -875 25 -624 -207 -1215 -652 -1660 -332 -333
-720 -535 -1190 -621 -137 -25 -478 -30 -634 -10 -250 33 -433 88 -666 201
-666 321 -1116 937 -1231 1685 -25 158 -25 471 -1 630 25 158 53 274 99 410
272 792 966 1354 1803 1459 136 17 449 12 592 -8z"/>
<path d="M2325 4733 c-290 -35 -561 -116 -785 -236 -632 -337 -1039 -930
-1131 -1647 -18 -139 -15 -422 5 -565 23 -160 75 -357 131 -501 49 -125 103
-234 115 -234 4 0 11 10 17 23 18 40 93 127 135 157 37 27 46 29 94 24 45 -6
59 -3 98 19 l46 25 -20 -38 c-24 -46 -78 -90 -111 -90 -20 0 -17 4 16 19 43
20 109 82 70 66 -11 -5 -55 -11 -97 -14 l-77 -6 -56 -55 c-31 -30 -67 -78 -81
-107 l-26 -52 33 -55 33 -54 35 51 c54 77 128 132 210 157 57 17 77 28 107 63
34 39 35 39 18 9 -25 -45 -58 -67 -127 -85 -69 -18 -127 -63 -191 -148 l-45
-60 26 -40 26 -40 26 33 c44 58 120 123 184 158 78 42 72 36 -26 -30 -70 -47
-167 -147 -167 -172 0 -6 23 -39 51 -74 l51 -65 42 44 c22 24 68 63 100 87 33
24 80 64 104 89 30 30 38 36 25 16 -26 -37 -82 -89 -153 -142 -30 -23 -68 -56
-85 -73 l-29 -30 114 -116 c63 -63 123 -120 132 -125 46 -25 220 67 347 185
39 36 86 75 104 86 52 35 -101 -104 -188 -172 -84 -64 -165 -108 -202 -108
-28 0 -37 -14 -19 -30 18 -14 121 27 211 84 33 22 54 32 47 23 -23 -28 -111
-79 -174 -102 l-60 -22 69 -50 c199 -147 453 -268 697 -333 220 -58 279 -65
561 -65 l260 0 65 31 c36 17 93 57 128 88 34 32 62 54 62 48 0 -19 -52 -73
-104 -108 l-51 -35 40 7 c22 3 82 17 133 30 88 23 96 27 152 83 58 58 108 142
128 214 13 48 -3 39 -19 -11 -21 -65 -49 -113 -97 -164 -63 -68 -92 -81 -47
-22 35 45 69 104 62 104 -3 0 -16 -17 -29 -38 -32 -48 -108 -126 -139 -142
-17 -9 -13 -1 17 31 23 24 49 58 57 75 13 24 2 17 -49 -34 -67 -67 -100 -80
-45 -17 17 20 31 39 32 43 4 63 9 95 15 100 4 4 4 -11 1 -33 l-5 -40 19 45
c11 25 26 85 33 135 10 66 14 79 16 50 l2 -40 13 40 c8 22 14 58 15 80 1 37 2
38 12 15 10 -24 6 -125 -6 -165 -8 -24 30 51 40 80 6 19 7 19 11 -3 3 -13 -2
-43 -11 -68 -22 -66 -9 -53 29 29 24 49 35 88 36 124 2 57 13 62 23 10 6 -31
-3 -96 -18 -142 -4 -11 7 6 24 38 36 67 48 140 31 188 -6 18 -9 34 -7 36 2 3
20 -13 40 -34 22 -24 36 -32 36 -23 1 8 7 2 15 -15 l13 -30 1 26 c1 14 -5 47
-13 72 -17 56 -5 63 17 9 l16 -37 0 57 c1 39 9 75 25 110 13 29 29 64 34 78
10 23 11 21 11 -20 1 -25 -6 -58 -15 -75 -9 -16 -22 -77 -29 -134 -8 -57 -18
-107 -23 -110 -6 -4 -4 -35 4 -81 19 -109 17 -150 -9 -203 l-24 -46 28 15 c35
18 40 25 61 104 l18 65 -4 -50 c-3 -27 -8 -59 -12 -70 -6 -19 -6 -19 11 -4 9
9 25 51 35 93 16 70 16 76 1 63 -33 -29 -45 -29 -20 -1 15 16 35 43 45 59 l19
30 -28 -18 c-16 -10 -31 -16 -34 -13 -3 3 6 32 21 65 14 32 26 66 26 74 0 9 5
19 10 22 13 8 13 -3 -4 -58 -8 -26 -12 -47 -9 -47 7 0 44 88 63 154 10 33 37
113 59 176 22 63 41 117 41 120 0 17 -24 -37 -46 -105 -42 -125 -103 -233
-144 -255 -16 -9 -14 1 15 57 40 79 47 109 9 43 -14 -25 -31 -52 -38 -60 -7
-8 -18 -35 -25 -60 -7 -25 -21 -56 -32 -70 l-21 -25 7 25 c4 14 13 47 21 75 8
27 14 66 14 87 0 20 5 49 11 65 14 38 70 244 71 263 0 8 -7 37 -15 64 -19 57
-4 49 17 -9 l14 -40 7 50 c9 71 11 74 24 40 7 -16 10 -47 7 -70 l-6 -40 19 50
c11 28 20 75 20 105 1 39 4 51 11 40 5 -8 10 -28 10 -45 1 -25 3 -27 9 -10 13
32 24 108 15 102 -5 -2 -18 25 -30 60 -19 61 -20 64 -3 42 11 -13 22 -35 26
-49 l6 -25 7 26 c4 14 4 48 0 75 -4 27 -6 51 -5 52 7 8 27 -43 41 -101 l14
-62 -5 90 c-2 50 -9 105 -15 124 -15 52 2 27 37 -57 l33 -77 -5 65 c-6 61 -5
64 9 40 15 -24 15 -23 9 25 -3 28 -13 73 -23 102 -21 64 -6 58 26 -11 l24 -51
-6 50 -5 50 16 -28 c9 -16 19 -27 21 -24 9 9 -27 82 -55 112 -27 28 -50 75
-37 75 3 0 13 -14 21 -31 23 -43 27 -32 10 26 -8 26 -15 62 -14 79 0 30 1 30
13 -9 15 -47 46 -109 52 -103 2 2 -1 19 -6 38 -5 19 -8 35 -6 37 1 2 19 -22
40 -52 20 -30 38 -55 41 -55 7 0 -26 74 -41 90 -16 19 -47 90 -39 90 4 0 34
-28 67 -62 65 -67 62 -51 -9 50 -25 34 -41 62 -36 62 15 0 86 -51 138 -99 55
-50 39 -31 -73 91 -34 38 -67 78 -73 90 l-12 23 23 -20 c13 -11 20 -14 15 -6
-6 11 -4 13 8 8 23 -9 21 -2 -11 46 -16 23 -33 49 -37 57 -5 8 34 -25 86 -73
53 -49 111 -98 130 -109 l34 -19 -29 23 c-71 55 -111 96 -152 154 -24 34 -44
65 -44 70 0 4 19 -10 42 -31 l41 -40 -23 35 c-13 19 -32 45 -43 58 -24 26 -21
27 25 8 40 -17 118 -98 118 -122 0 -11 -4 -14 -13 -8 -7 5 -5 2 4 -6 9 -8 32
-24 50 -34 26 -15 30 -20 17 -23 -9 -3 -27 1 -40 8 -13 6 5 -14 40 -46 35 -32
62 -65 62 -76 0 -22 -3 -23 -33 -8 -12 5 11 -22 52 -61 78 -75 86 -99 20 -63
-67 37 -43 15 49 -44 48 -31 90 -61 94 -67 12 -18 9 -29 -7 -22 -44 18 -46 15
-5 -12 52 -34 72 -55 69 -74 -1 -7 20 -36 48 -64 l51 -51 31 101 c257 842 -3
1750 -658 2297 -331 277 -687 433 -1119 493 -102 15 -417 20 -507 9z m506
-162 c-10 -7 3 -9 40 -8 61 1 96 -12 63 -23 -10 -4 13 -5 51 -3 53 4 75 1 90
-11 19 -14 17 -15 -35 -17 l-55 -1 65 -12 c60 -11 110 -30 110 -42 0 -2 -30
-2 -67 1 l-68 5 66 -14 c66 -14 142 -47 154 -66 4 -7 -13 -9 -52 -5 -56 5 -55
4 25 -15 88 -20 151 -50 170 -80 10 -16 3 -15 -46 8 -52 25 -67 27 -182 27
-121 0 -128 -1 -190 -32 -52 -26 -85 -54 -161 -138 -60 -65 -111 -133 -134
-175 -20 -39 -38 -70 -40 -70 -8 0 28 107 48 140 11 19 66 82 121 139 75 77
116 111 161 132 68 33 51 40 -21 9 -70 -30 -241 -202 -311 -313 -31 -48 -58
-85 -61 -82 -3 3 14 43 37 90 34 68 63 107 139 187 53 55 119 113 147 129 58
34 53 39 -8 8 -111 -57 -204 -143 -266 -246 -23 -38 -41 -61 -41 -53 0 23 55
133 74 149 9 8 14 21 11 31 -9 27 73 138 129 177 26 18 44 33 39 33 -18 0
-118 -78 -143 -111 -13 -19 -37 -56 -52 -84 -37 -67 -36 -36 2 42 33 71 107
156 160 183 19 11 29 19 22 20 -25 0 -88 -39 -128 -82 -53 -56 -73 -89 -101
-168 l-24 -65 6 55 c7 69 51 164 101 221 l39 43 -33 -24 c-40 -29 -92 -107
-117 -172 -10 -27 -20 -48 -22 -48 -2 0 -1 24 2 53 4 40 3 47 -5 29 -5 -13
-14 -58 -19 -100 l-8 -77 -2 67 c-1 55 -7 79 -37 136 -48 96 -73 112 -30 21
19 -41 37 -92 40 -114 6 -45 7 -45 -42 68 -14 31 -26 56 -28 54 -2 -1 6 -42
16 -89 10 -48 21 -115 24 -150 l5 -63 -10 55 c-19 98 -40 143 -94 195 -43 42
-176 125 -200 125 -4 0 19 -20 52 -45 32 -24 90 -74 128 -110 l70 -66 -110 85
c-60 48 -145 103 -187 124 -43 20 -78 41 -78 46 0 5 26 6 57 3 79 -8 188 -64
263 -135 33 -32 59 -53 56 -46 -3 7 -8 29 -12 48 -10 56 -112 131 -249 182
-19 7 -19 7 -1 12 32 7 104 -19 164 -60 46 -31 51 -33 22 -8 -19 17 -57 42
-85 55 -44 21 -47 24 -22 25 15 0 51 -11 80 -25 29 -14 43 -19 33 -11 -24 19
-16 30 14 21 58 -18 150 -148 150 -212 0 -46 17 -29 29 29 12 58 10 91 -4 49
-9 -28 -18 -26 -38 9 -10 16 -34 51 -53 76 -20 25 -33 48 -31 51 3 2 21 -10
41 -28 l37 -32 24 23 c18 17 25 19 25 9 1 -10 3 -10 10 3 14 23 74 22 65 -1
-4 -10 2 -8 18 7 24 22 47 29 47 13 0 -4 21 2 47 15 44 23 147 36 114 15z
m-619 -79 c76 -44 160 -103 154 -110 -3 -3 -14 2 -23 11 -27 23 -203 107 -227
107 -12 0 -28 5 -36 10 -11 7 -1 10 35 10 36 0 63 -8 97 -28z m-87 -81 c33
-17 76 -47 95 -67 37 -39 34 -38 -45 12 -57 36 -127 62 -192 71 -23 3 -43 10
-43 16 0 19 123 -2 185 -32z m-24 -39 c85 -41 148 -97 217 -195 32 -43 69 -95
83 -115 15 -21 30 -48 34 -62 4 -14 -8 -3 -27 27 -67 103 -149 212 -188 247
-76 69 -204 116 -318 116 -37 0 -51 3 -46 11 4 8 36 10 93 7 70 -3 98 -10 152
-36z m-20 -43 c95 -45 138 -84 201 -177 62 -93 95 -164 103 -222 5 -43 4 -42
-13 15 -25 80 -50 127 -117 217 -62 83 -126 135 -177 144 l-33 6 26 -19 c101
-72 215 -207 249 -298 16 -42 2 -28 -18 18 -23 52 -155 200 -213 239 -23 15
-51 28 -63 27 -20 0 -20 -1 -1 -8 27 -11 -37 -21 -131 -21 -39 0 -104 -9 -144
-19 -78 -21 -97 -21 -59 0 39 21 121 38 204 44 44 4 91 9 105 12 l25 6 -30 13
c-36 16 -123 18 -195 4 -29 -6 -55 -8 -58 -5 -11 11 61 28 148 35 l95 7 -88 1
c-61 2 -86 5 -81 13 4 7 39 10 98 7 80 -3 100 -7 167 -39z m-106 -28 c20 -5
-9 -9 -85 -13 -63 -3 -124 -9 -135 -13 -11 -5 -17 -5 -13 -1 23 26 166 42 233
27z m1356 -24 c54 -26 129 -90 84 -72 -125 51 -211 65 -275 45 -17 -5 3 -8 62
-9 97 -1 165 -19 217 -59 39 -29 27 -41 -18 -18 -53 28 -48 17 6 -14 35 -20
55 -39 59 -55 3 -14 24 -39 46 -56 25 -20 35 -34 28 -39 -7 -4 -2 -13 14 -24
14 -9 26 -23 26 -30 0 -10 -15 -8 -62 11 -65 26 -225 63 -268 62 -25 -1 108
-38 212 -59 68 -13 132 -59 168 -119 14 -23 42 -70 63 -103 43 -69 61 -108 48
-108 -9 0 -88 84 -109 116 -7 10 -3 1 7 -21 11 -22 38 -62 60 -89 39 -46 55
-86 29 -70 -9 5 -8 2 1 -9 7 -10 31 -27 52 -39 41 -23 50 -38 24 -38 -34 0
-94 42 -175 121 -79 77 -186 149 -221 149 -8 0 11 -14 41 -31 62 -34 106 -67
200 -152 36 -32 92 -73 125 -91 32 -17 60 -37 63 -44 6 -18 -49 -15 -78 5 -24
16 -24 16 -11 0 8 -10 47 -33 86 -51 40 -18 79 -44 88 -57 21 -29 22 -46 2
-29 -13 11 -14 10 -9 -4 5 -13 2 -15 -12 -10 -26 9 -74 55 -74 70 0 12 -29 28
-37 20 -2 -2 5 -22 17 -45 15 -30 17 -41 7 -41 -21 0 -42 21 -70 70 -14 25
-53 74 -87 110 -62 65 -53 40 17 -46 38 -47 72 -119 73 -151 0 -39 -18 -26
-49 35 -44 83 -80 124 -41 47 29 -60 60 -169 60 -215 0 -18 -13 -1 -48 61 -73
130 -101 164 -172 210 -36 24 -96 67 -135 97 -38 29 -88 63 -110 75 -35 19
-37 22 -17 25 21 3 112 -52 307 -188 l60 -41 -67 64 c-36 35 -103 88 -149 117
-45 30 -77 56 -71 58 11 3 174 -69 202 -91 9 -7 0 4 -21 24 -53 50 -154 98
-262 125 -91 22 -92 22 -40 23 28 1 80 -8 114 -19 35 -10 65 -18 67 -15 2 2
-29 19 -70 39 -81 39 -80 46 3 17 66 -22 132 -55 179 -88 27 -19 24 -14 -12
19 -90 83 -205 126 -348 129 l-55 2 40 8 c24 5 -1 6 -65 2 -169 -8 -172 -9
-234 -47 -51 -31 -96 -46 -96 -32 0 5 179 110 213 124 52 22 62 11 14 -14 -63
-33 -55 -41 9 -12 43 20 65 23 169 22 102 0 132 -4 200 -27 43 -14 81 -24 83
-22 6 6 -75 45 -148 72 l-65 23 65 -6 c92 -8 171 -37 256 -95 81 -54 97 -52
35 4 -50 45 -76 59 -180 91 -98 31 -203 42 -284 28 -69 -11 -63 3 9 23 l49 13
-43 1 c-23 1 -70 -8 -103 -19 -34 -12 -64 -19 -67 -16 -3 3 26 20 64 38 60 28
79 32 144 31 42 0 106 -10 145 -21 38 -12 71 -19 73 -18 6 6 -104 46 -157 57
-124 26 -205 -5 -326 -127 -46 -46 -87 -84 -90 -84 -3 0 7 19 23 43 51 73 137
145 219 185 74 35 85 37 203 42 111 5 119 7 76 14 -118 21 -281 -14 -398 -84
-35 -21 -65 -36 -68 -34 -8 9 84 82 136 109 49 25 92 35 239 54 65 9 61 9 -55
8 -121 -2 -127 -3 -186 -35 -64 -35 -134 -96 -197 -172 -30 -37 -35 -40 -27
-17 35 99 130 185 260 235 71 27 41 28 -63 1 -98 -25 -108 -30 -176 -87 -50
-43 -52 -44 -38 -15 27 52 96 132 137 159 22 15 55 41 74 59 49 46 121 65 236
62 80 -2 104 -7 151 -30z m-949 -90 c10 -22 17 -41 15 -44 -3 -2 -8 5 -12 16
-3 12 -25 45 -47 73 -37 48 -38 50 -9 23 18 -16 42 -47 53 -68z m-310 24 c25
-16 49 -35 53 -42 9 -14 8 -13 -64 36 -63 42 -54 47 11 6z m-252 -6 c-58 -13
-129 -32 -158 -44 -56 -22 -63 -12 -11 15 48 24 169 53 224 53 45 -1 39 -3
-55 -24z m219 -25 c39 -19 136 -118 126 -128 -2 -3 1 -12 8 -20 32 -40 -15 0
-63 53 -30 33 -48 54 -40 48 17 -16 34 -17 25 -3 -11 17 -76 40 -155 55 l-75
13 68 1 c49 1 78 -4 106 -19z m-254 -9 c-3 -5 -22 -15 -43 -22 -20 -6 -67 -27
-104 -45 -72 -36 -83 -40 -73 -24 9 15 81 50 155 76 78 27 72 26 65 15z m150
-22 c17 -1 -10 -5 -60 -9 -49 -4 -106 -10 -125 -13 -30 -6 -32 -6 -11 3 34 15
122 29 146 24 11 -2 34 -4 50 -5z m116 -66 c9 -9 1 -9 -31 -2 -24 5 -45 8 -47
5 -2 -2 11 -7 29 -11 63 -14 110 -47 215 -152 64 -64 94 -99 74 -87 -18 10
-66 56 -107 100 -56 62 -88 87 -132 107 -162 73 -384 27 -517 -107 -33 -33
-76 -74 -95 -90 l-35 -30 33 35 c18 20 35 46 37 59 6 32 89 115 150 151 75 44
78 35 5 -15 -36 -24 -85 -66 -110 -92 l-45 -48 59 53 c113 100 237 143 403
138 60 -1 107 -7 114 -14z m202 -58 c20 -29 19 -29 -17 5 -21 19 -42 44 -48
55 -9 16 -6 16 17 -5 15 -14 36 -38 48 -55z m274 8 c-3 -10 -5 -2 -5 17 0 19
2 27 5 18 2 -10 2 -26 0 -35z m287 15 c-4 -7 -26 -40 -49 -73 -23 -33 -55 -82
-71 -109 -39 -68 -43 -40 -4 33 32 60 108 159 123 160 5 1 5 -5 1 -11z m-794
-31 c33 -15 33 -16 5 -9 -16 4 -79 7 -140 7 -130 0 -184 -16 -283 -81 l-67
-44 44 40 c50 46 128 86 191 100 64 13 208 6 250 -13z m265 -88 l30 -33 -40
31 c-22 17 -49 41 -60 54 l-20 23 30 -21 c17 -12 44 -36 60 -54z m-354 33 c10
-4 -26 -7 -79 -7 -89 0 -103 -3 -165 -32 -69 -33 -124 -71 -184 -127 -18 -16
-35 -27 -38 -24 -10 10 131 126 188 155 94 48 204 62 278 35z m94 0 c17 -10
55 -42 85 -72 48 -45 50 -49 15 -24 -22 15 -54 39 -70 53 -17 14 -42 34 -55
43 -34 23 -13 23 25 0z m-54 -52 c35 -11 78 -29 94 -40 41 -27 29 -25 -41 7
-44 20 -80 28 -140 31 -105 6 -168 -13 -267 -77 -42 -28 -91 -58 -109 -67 -18
-9 -80 -64 -137 -123 -94 -96 -116 -109 -34 -20 19 19 35 46 38 59 2 13 9 28
15 34 8 8 9 5 4 -9 -7 -19 -7 -19 17 1 13 11 76 56 139 100 177 121 282 148
421 104z m284 -81 c5 -6 3 -9 -5 -9 -8 0 -40 23 -70 51 l-55 50 60 -42 c33
-23 64 -46 70 -50z m-320 51 c23 -6 16 -8 -36 -9 -111 -2 -150 -17 -394 -156
-22 -13 -65 -49 -95 -82 -31 -32 -76 -74 -100 -93 -25 -19 -1 10 53 64 93 92
171 149 313 227 88 49 186 68 259 49z m-435 -33 c0 -2 -24 -23 -52 -47 l-53
-43 45 46 c38 41 60 56 60 44z m481 -22 c25 -9 67 -34 94 -57 28 -23 41 -38
30 -33 -110 44 -171 52 -257 35 -87 -17 -300 -125 -374 -190 -58 -51 -58 -51
7 11 51 49 94 78 190 127 153 78 229 95 319 71 68 -18 71 -9 5 16 -33 13 -65
16 -128 13 -78 -4 -89 -8 -192 -62 -61 -32 -125 -67 -142 -78 -18 -11 -33 -17
-33 -14 0 6 160 105 217 135 83 42 187 52 264 26z m626 -68 c28 -8 69 -28 91
-45 48 -38 59 -39 137 -7 81 34 179 59 183 47 1 -5 13 -7 25 -5 13 3 39 0 58
-5 33 -8 32 -9 -36 -21 -38 -7 -91 -14 -117 -16 -26 -1 -84 -17 -129 -36 -82
-33 -82 -33 -113 -14 -104 62 -118 67 -196 61 -41 -3 -92 -8 -112 -12 -69 -12
-34 27 47 52 53 17 99 17 162 1z m-607 -18 c20 -7 19 -8 -11 -4 -20 3 -67 1
-105 -4 -95 -14 -306 -117 -389 -191 l-60 -54 55 57 c45 47 79 70 187 123 161
79 249 99 323 73z m-84 -48 c-3 -5 -20 -11 -37 -13 -29 -5 -30 -4 -14 9 21 14
59 18 51 4z m418 -12 c11 -10 -74 1 -94 12 -9 5 6 6 35 2 28 -3 54 -9 59 -14z
m315 -14 c85 -40 121 -44 208 -29 108 19 115 17 58 -14 -34 -18 -72 -28 -120
-33 l-70 -6 63 -1 c39 -1 61 -6 57 -12 -14 -22 23 -8 65 26 l45 36 87 -5 c93
-6 189 -40 224 -78 21 -24 21 -24 -51 2 -83 30 -199 36 -274 15 -32 -9 -72
-17 -87 -17 -16 0 -65 -3 -109 -8 l-80 -8 95 -1 c69 -2 116 4 168 18 39 11 94
20 121 20 108 0 255 -69 295 -140 l20 -34 -58 41 c-53 39 -151 81 -162 71 -2
-3 28 -17 68 -33 86 -34 153 -95 163 -148 4 -22 18 -43 36 -56 36 -27 96 -150
114 -238 20 -94 19 -167 -6 -286 -35 -172 -107 -317 -212 -424 -64 -66 -86
-70 -25 -5 46 49 71 85 123 177 35 62 24 51 -44 -42 -52 -72 -144 -163 -164
-163 -5 0 15 26 46 58 59 63 161 211 208 304 48 95 33 80 -27 -27 -67 -119
-150 -226 -204 -262 -52 -34 -117 -41 -178 -18 -79 30 -223 120 -294 185 -88
80 -119 93 -212 84 -68 -6 -77 -4 -117 20 -28 16 -37 26 -25 26 16 0 16 2 -5
20 l-24 20 30 -6 c29 -6 29 -6 10 9 -26 21 -1 22 35 2 36 -21 104 -18 150 5
46 23 53 11 18 -28 -26 -28 -5 -20 30 11 l22 20 0 -31 c0 -18 5 -32 12 -32 6
0 21 -8 32 -17 20 -18 20 -18 0 12 -40 59 -36 59 27 -1 120 -114 176 -134 318
-109 51 9 111 23 132 32 46 18 105 83 114 124 10 44 27 36 19 -8 -8 -48 -27
-95 -55 -136 l-21 -32 23 25 c28 32 68 119 76 164 8 51 -4 101 -33 136 -30 35
-12 41 24 8 l25 -23 -6 30 c-5 28 -4 29 10 10 11 -15 14 -43 11 -120 -3 -85
-8 -109 -31 -156 -35 -72 -98 -134 -155 -154 -48 -16 -143 -19 -177 -6 -18 7
-15 10 20 25 22 10 74 26 115 36 l75 20 -74 -5 c-40 -3 -93 -10 -117 -16 -24
-6 -58 -8 -76 -5 -49 9 -136 52 -188 92 -42 33 -41 32 10 -17 193 -184 400
-211 524 -68 75 87 136 241 136 343 0 57 -18 101 -58 144 -20 22 -28 39 -25
53 5 18 2 19 -22 13 -25 -6 -27 -5 -20 15 6 19 4 21 -18 16 -22 -6 -24 -4 -20
19 5 25 4 26 -22 16 -26 -10 -27 -9 -21 15 7 28 7 29 -29 15 -24 -9 -26 -8
-20 11 6 19 5 20 -16 8 -17 -9 -24 -9 -27 -1 -3 9 -9 9 -23 2 -15 -9 -19 -7
-19 6 0 15 -2 15 -26 -1 -30 -20 -43 -13 -23 12 8 10 -2 5 -21 -11 -22 -18
-36 -24 -38 -16 -3 8 -14 1 -29 -16 -24 -28 -24 -28 -19 -5 5 23 4 23 -25 -5
-17 -17 -29 -22 -29 -14 0 9 -9 5 -25 -10 -14 -13 -25 -20 -25 -16 0 5 -7 3
-15 -4 -8 -6 -19 -9 -24 -6 -5 4 -12 2 -16 -4 -9 -15 -28 -12 -19 3 4 6 -3 3
-16 -8 -22 -19 -23 -19 -17 -1 6 14 4 17 -10 11 -66 -25 -106 -7 -86 38 14 31
63 88 72 83 3 -2 45 25 91 60 93 70 122 83 72 31 -34 -35 -45 -62 -14 -34 10
9 44 29 77 44 53 25 72 28 155 28 85 0 101 -3 155 -29 82 -40 173 -133 215
-220 30 -60 35 -81 39 -165 4 -99 18 -96 20 6 2 112 -57 232 -162 329 -122
113 -246 145 -404 105 -45 -12 -99 -21 -120 -22 -21 -1 -49 -4 -62 -8 -22 -6
-23 -8 -8 -23 16 -15 15 -17 -17 -28 -19 -6 -53 -24 -76 -41 l-41 -30 16 31
c16 30 16 31 -3 21 -53 -28 -79 -161 -47 -237 18 -44 3 -36 -19 10 -22 47 -21
149 4 229 l20 64 57 16 c32 9 101 21 153 27 52 6 119 18 149 27 92 26 196 14
295 -36 45 -22 106 -61 136 -87 l55 -48 -45 48 c-116 122 -300 184 -430 146
-19 -6 -82 -17 -140 -26 -58 -8 -129 -21 -160 -29 -30 -8 -56 -13 -57 -11 -2
2 1 14 6 28 9 23 17 26 83 32 40 4 111 15 158 23 47 9 121 19 165 23 l80 7
-68 1 c-38 1 -112 -7 -165 -17 -108 -22 -232 -36 -232 -28 0 3 5 18 12 32 10
23 17 25 72 26 34 0 79 4 101 8 26 6 8 7 -54 3 -89 -5 -94 -4 -87 13 6 18 6
18 -12 2 -15 -14 -42 -17 -148 -19 l-129 -2 128 -3 127 -4 -15 -29 -16 -30
-137 -2 c-75 0 -122 -3 -104 -5 24 -3 36 -12 48 -35 8 -16 13 -33 9 -36 -3 -3
-31 7 -62 22 -43 21 -82 30 -158 37 -57 6 -134 21 -179 36 -74 25 -83 26 -156
15 -43 -6 -105 -22 -139 -36 -33 -13 -61 -23 -61 -21 0 8 82 47 137 66 101 35
156 35 292 0 68 -18 133 -30 145 -28 18 4 17 4 -5 6 -14 0 -75 15 -135 32
-166 48 -282 41 -416 -27 -68 -34 -72 -29 -9 11 122 78 282 103 368 57 23 -12
48 -22 55 -22 7 0 -14 15 -47 33 -56 30 -67 32 -155 31 -74 0 -107 -5 -147
-22 -71 -29 -67 -18 5 16 49 23 70 27 152 27 80 0 105 -4 161 -27 36 -14 83
-29 105 -33 23 -3 4 6 -46 23 -47 16 -84 34 -83 39 1 6 -4 14 -13 17 -8 3 -13
2 -10 -3 5 -8 -73 5 -82 14 -2 1 18 6 45 9 38 5 70 0 153 -25 102 -31 111 -32
315 -34 l210 -3 -210 8 c-218 8 -257 15 -369 64 -28 13 -56 21 -62 19 -6 -2
-24 2 -40 8 -35 15 -40 16 -60 18 -8 0 -12 6 -8 12 8 14 128 6 147 -9 22 -18
144 -51 229 -62 55 -7 131 -7 223 -2 l140 9 -185 -1 c-200 -1 -275 10 -307 46
-18 20 -17 21 2 15 88 -25 109 -27 201 -18 54 6 100 10 103 9 3 0 38 1 76 2
89 3 53 17 -50 20 -54 2 -64 4 -45 11 41 14 139 1 199 -26z m-534 -3 c-3 -3
-11 0 -18 7 -9 10 -8 11 6 5 10 -3 15 -9 12 -12z m1044 -2 c10 -5 -21 -10 -86
-12 -55 -2 -99 0 -97 4 16 25 143 31 183 8z m-1219 -30 c22 -7 20 -8 -15 -9
-22 -1 -80 -12 -129 -26 -49 -14 -92 -23 -94 -20 -2 2 13 8 34 14 22 6 57 20
79 31 40 21 81 24 125 10z m-268 -29 c-29 -16 -76 -51 -104 -76 -29 -26 -73
-61 -98 -77 l-45 -29 40 33 c22 18 65 56 95 85 31 29 76 61 100 72 66 30 73
25 12 -8z m-2 -44 c0 -2 -12 -14 -27 -28 l-28 -24 24 28 c23 25 31 32 31 24z
m-430 -127 c-35 -30 -57 -39 -44 -19 6 11 65 49 74 49 3 0 -11 -14 -30 -30z
m310 15 c0 -2 -17 -13 -38 -24 -20 -10 -75 -52 -122 -91 l-85 -73 58 60 c32
33 86 77 120 97 64 38 67 39 67 31z m-210 -8 c0 -2 -17 -19 -37 -38 l-38 -34
34 38 c33 34 41 42 41 34z m635 -17 c4 -6 -17 -10 -57 -10 -44 0 -59 3 -48 10
20 13 97 13 105 0z m75 -35 c30 -8 82 -15 116 -15 76 0 169 -17 209 -38 16 -9
36 -17 43 -18 21 -4 27 -14 8 -14 -15 0 -15 -3 3 -38 28 -55 34 -102 25 -190
l-8 -77 -12 75 c-11 71 -37 150 -48 150 -3 0 2 -16 10 -35 7 -19 14 -56 13
-82 l-1 -48 -12 55 c-22 97 -62 148 -141 181 -29 12 -29 13 -7 17 13 2 37 -1
53 -7 16 -6 27 -6 24 -1 -9 15 -67 28 -158 35 -48 3 -109 13 -135 20 -102 31
-228 8 -338 -63 -75 -49 -136 -118 -177 -201 -31 -64 -32 -69 -31 -196 0 -115
4 -139 27 -204 48 -133 156 -295 251 -378 20 -18 33 -33 28 -33 -19 0 -141
131 -186 198 -156 236 -189 479 -90 674 68 135 211 221 394 238 47 4 85 8 85
8 0 1 25 -5 55 -13z m540 6 c0 -26 -22 -61 -37 -61 -14 0 -15 -2 -4 -9 11 -7
10 -18 -5 -62 -14 -40 -19 -82 -19 -161 0 -60 -1 -108 -2 -108 -1 0 -9 21 -18
48 -13 39 -15 41 -10 12 3 -23 2 -30 -4 -20 -5 8 -11 69 -12 135 -3 91 -8 123
-19 132 -13 11 -11 13 10 13 l25 2 -26 9 c-24 9 -49 45 -49 69 0 6 38 10 85
10 47 0 85 -4 85 -9z m-1360 -5 c0 -2 -20 -20 -45 -40 -25 -21 -45 -33 -45
-27 0 6 19 24 42 41 40 30 48 34 48 26z m130 -9 c-33 -30 -124 -90 -110 -73 8
10 37 34 65 52 52 35 70 44 45 21z m2163 -64 c61 -47 68 -47 37 5 -44 73 -7
34 63 -65 54 -77 126 -227 125 -260 0 -15 4 -52 9 -80 12 -62 2 -70 -17 -14
-7 22 -22 52 -32 68 -12 17 -17 20 -13 8 15 -40 65 -271 64 -295 0 -19 -5 -14
-17 22 -29 80 -32 64 -6 -29 29 -103 44 -176 44 -211 0 -40 -15 -14 -35 61 -9
37 -19 66 -21 64 -2 -1 6 -45 17 -97 22 -102 35 -285 20 -276 -5 4 -7 -21 -5
-56 l4 -63 -15 49 c-22 65 -27 55 -9 -19 26 -112 14 -137 -21 -42 -23 61 -32
53 -11 -9 20 -59 20 -170 1 -204 -14 -24 -15 -22 -10 30 l6 55 -20 -57 c-10
-32 -22 -77 -25 -100 -12 -80 -26 -78 -26 3 0 103 -10 169 -25 169 -13 0 -25
30 -25 63 0 11 4 15 12 11 8 -5 9 -2 5 10 -4 10 -7 27 -7 37 0 12 -5 17 -10
14 -12 -7 -3 44 9 58 7 7 37 -87 61 -188 l9 -40 -3 45 c-1 25 -15 86 -30 137
-16 53 -26 107 -24 130 3 37 4 37 15 13 6 -14 18 -47 26 -75 15 -49 15 -49 16
-15 0 19 -8 64 -19 99 -11 35 -19 66 -17 68 3 2 19 -21 38 -51 18 -31 35 -54
37 -51 2 2 -12 37 -32 77 l-37 73 42 -45 c22 -25 49 -61 60 -80 10 -19 18 -28
19 -19 0 9 -15 39 -34 66 -55 80 -87 151 -92 206 l-5 52 40 -82 c22 -46 42
-83 45 -83 3 0 -8 37 -25 83 -57 151 -99 290 -82 274 4 -5 25 -47 45 -95 41
-96 44 -95 26 11 -7 45 -22 89 -39 117 -31 50 -30 67 2 26 28 -35 33 -28 14
18 -8 20 -14 49 -13 64 1 17 -13 56 -36 98 l-38 69 31 -30 c17 -16 44 -55 61
-85 17 -30 28 -44 24 -30 -12 48 -68 143 -112 192 -25 27 -43 51 -40 53 2 3
31 -19 63 -48 l59 -52 -42 60 c-23 33 -52 73 -64 90 l-23 30 30 -22 c34 -24
84 -76 108 -113 10 -13 17 -20 17 -14 0 24 -60 97 -142 174 -49 45 -88 86 -88
91 0 13 11 6 83 -48z m-2095 -14 c-29 -34 -61 -71 -71 -82 l-18 -22 10 22 c11
22 119 143 128 143 3 0 -19 -27 -49 -61z m-218 28 c0 -2 -10 -12 -22 -23 l-23
-19 19 23 c18 21 26 27 26 19z m882 -31 c36 -15 74 -36 83 -46 10 -11 22 -17
27 -14 5 4 -5 22 -24 42 l-33 35 38 -21 c21 -12 49 -22 62 -22 40 0 115 -103
115 -159 0 -38 -29 -54 -84 -46 -28 3 -56 11 -63 17 -9 8 -13 7 -13 -2 0 -9
-7 -7 -20 5 -11 10 -20 14 -20 10 0 -4 -9 0 -20 10 -11 10 -23 15 -27 12 -4
-4 -17 3 -30 15 -22 21 -24 21 -17 3 7 -18 5 -18 -18 3 -13 12 -27 19 -31 16
-3 -3 -16 1 -29 10 -30 21 -37 20 -31 -5 6 -20 5 -20 -23 -6 -16 8 -40 18 -54
22 -22 7 -23 6 -11 -9 12 -14 11 -16 -5 -16 -27 0 -48 16 -40 29 5 7 1 9 -9 5
-12 -5 -13 -10 -4 -20 9 -11 7 -15 -7 -21 -10 -4 -19 -2 -22 5 -7 21 -20 13
-15 -8 5 -17 1 -20 -18 -16 -13 3 -28 5 -33 5 -4 1 -6 8 -2 16 9 23 0 18 -20
-12 -13 -20 -13 -25 -2 -16 17 15 29 8 21 -12 -2 -8 -11 -11 -19 -8 -12 4 -14
0 -8 -21 4 -16 2 -26 -5 -26 -6 0 -11 7 -11 16 0 10 -8 6 -25 -14 -14 -17 -25
-38 -25 -48 0 -11 -5 -26 -10 -34 -8 -13 -10 -12 -10 3 0 10 -4 15 -10 12 -5
-3 -10 3 -10 14 0 23 -25 29 -33 9 -3 -7 -6 -3 -6 10 -1 18 3 21 22 17 13 -4
30 1 42 10 11 9 14 14 8 10 -27 -13 -12 38 23 83 l37 47 -36 -38 c-37 -39 -57
-41 -57 -8 0 21 87 106 143 140 65 40 115 51 212 47 70 -2 105 -9 157 -30z
m1836 -42 c48 -33 51 -55 45 -280 -5 -178 -8 -216 -26 -257 -23 -56 -77 -107
-114 -107 -25 0 -24 2 20 40 32 28 52 57 66 96 27 71 27 91 0 37 -35 -72 -113
-126 -126 -88 -2 6 10 19 27 28 57 34 80 91 95 239 21 188 20 204 -11 235 -37
37 -77 26 -131 -34 -42 -47 -43 -47 -43 -20 0 40 26 85 63 107 39 24 104 26
135 4z m-2685 -14 c20 -16 65 -110 52 -110 -1 0 -18 15 -37 34 -63 63 -133 60
-155 -7 -9 -28 -10 -56 -3 -105 5 -37 10 -94 10 -128 0 -79 24 -147 66 -190
19 -18 34 -36 34 -39 0 -15 -34 -2 -55 21 -41 44 -28 19 20 -41 25 -30 41 -55
37 -55 -24 0 -95 78 -124 137 -31 63 -33 74 -34 177 0 61 -4 125 -8 143 -11
46 11 112 49 150 27 27 40 33 78 33 29 0 53 -7 70 -20z m158 -24 c-6 -7 -25
-38 -41 -67 -16 -30 -30 -49 -30 -44 0 14 38 86 58 108 18 20 30 23 13 3z
m-13 -73 c-17 -32 -36 -62 -41 -68 -11 -12 29 70 51 103 27 42 22 22 -10 -35z
m192 -26 c0 -12 -33 -67 -37 -63 -8 8 18 66 28 66 5 0 9 -2 9 -3z m160 -11 c0
-3 -4 -8 -10 -11 -5 -3 -10 -1 -10 4 0 6 5 11 10 11 6 0 10 -2 10 -4z m-383
-85 c-23 -44 -43 -78 -45 -76 -4 3 43 99 66 133 28 43 20 21 -21 -57z m2536
12 c10 -96 9 -153 -2 -153 -10 0 -31 86 -31 129 0 40 11 91 20 91 4 0 10 -30
13 -67z m-2306 25 c-3 -8 -6 -5 -6 6 -1 11 2 17 5 13 3 -3 4 -12 1 -19z m-427
-84 c0 -54 -4 -83 -10 -79 -5 3 -10 21 -10 39 0 40 11 126 16 126 2 0 4 -39 4
-86z m486 39 c-10 -10 -19 5 -10 18 6 11 8 11 12 0 2 -7 1 -15 -2 -18z m349
-13 c-3 -5 -12 -10 -19 -10 -7 0 -49 -18 -92 -40 -75 -38 -124 -50 -124 -31 0
9 140 67 197 80 21 5 39 9 41 10 2 1 0 -3 -3 -9z m1075 -12 c55 -17 150 -65
143 -72 -14 -14 -46 -4 -140 45 -91 47 -92 54 -3 27z m-1489 -27 c7 10 9 4 7
-21 -2 -19 -7 -34 -13 -32 -5 2 -9 10 -7 18 2 7 -2 23 -8 34 -6 11 -7 26 -3
33 5 8 9 2 11 -17 3 -23 6 -26 13 -15z m-225 -28 c-8 -15 -15 -25 -16 -21 0
12 23 58 27 54 3 -2 -2 -17 -11 -33z m24 -31 c0 -5 -7 -17 -15 -28 -14 -18
-14 -17 -4 9 12 27 19 34 19 19z m1657 0 c14 -9 33 -56 33 -83 0 -11 -11 -31
-25 -44 -28 -29 -19 -31 32 -10 54 23 76 45 62 62 -7 8 -8 13 -1 13 5 0 15 -7
22 -15 10 -13 10 -19 -5 -34 -16 -19 -16 -19 7 -14 51 11 -38 -36 -97 -52 -80
-20 -146 -19 -230 5 -38 11 -80 20 -93 20 l-23 0 28 35 c31 39 48 46 38 16 -4
-14 0 -21 15 -26 12 -4 24 -4 27 -1 4 3 1 6 -5 6 -14 0 -16 36 -3 45 5 3 20
-12 32 -34 24 -44 41 -51 114 -50 28 1 42 3 33 6 -24 6 -23 10 10 38 l27 24
-25 1 c-34 0 -50 17 -50 52 0 38 44 61 77 40z m-1707 -36 c-16 -42 -12 -66 5
-36 8 14 14 21 14 15 0 -5 -6 -21 -13 -34 l-14 -24 -7 21 c-6 21 12 98 21 89
3 -2 0 -16 -6 -31z m728 25 c8 -5 12 -17 10 -27 -4 -25 -56 -32 -64 -10 -14
36 20 59 54 37z m-108 -18 c0 -10 3 -29 6 -43 5 -24 5 -24 -10 -6 -18 22 -22
66 -6 66 6 0 10 -8 10 -17z m956 1 c-3 -9 -6 -28 -6 -42 0 -21 -2 -24 -10 -12
-16 25 -12 70 6 70 11 0 14 -5 10 -16z m-1206 -34 c-12 -23 -4 -109 15 -156
21 -51 81 -110 138 -135 42 -19 69 -24 143 -24 83 0 96 3 155 33 l64 33 -37
-38 c-21 -21 -64 -54 -95 -73 -51 -31 -65 -35 -128 -35 -54 0 -81 6 -120 24
-65 32 -148 118 -170 175 -21 55 -17 151 8 190 21 31 43 36 27 6z m1189 -48
c14 -26 5 -28 -21 -5 -18 16 -24 53 -11 67 4 4 10 -3 14 -16 3 -14 12 -34 18
-46z m-935 -11 c23 -19 20 -34 -4 -21 -30 16 -53 57 -45 77 6 15 9 13 20 -13
8 -17 21 -36 29 -43z m-113 46 c-24 -30 83 -87 162 -87 16 0 64 10 107 21 69
19 77 24 73 43 -4 18 -1 16 21 -9 14 -16 26 -33 26 -36 0 -3 -43 -16 -95 -29
-111 -27 -206 -24 -278 8 -50 22 -76 49 -36 37 l24 -7 -22 23 c-21 21 -21 23
-5 35 22 17 37 18 23 1z m279 -1 c0 -21 -39 -66 -57 -66 -14 0 -13 4 4 23 11
12 23 30 26 40 7 20 27 23 27 3z m280 -47 c34 -17 62 -23 113 -24 70 0 86 -11
46 -32 -61 -32 -164 -1 -219 65 -35 43 -40 65 -7 35 12 -11 42 -31 67 -44z
m-512 26 c6 -14 8 -25 4 -25 -12 0 -32 23 -32 37 0 22 16 15 28 -12z m577 4
c5 -5 -6 -9 -27 -9 -20 0 -41 7 -49 16 -11 14 -9 15 27 9 21 -4 43 -11 49 -16z
m825 -20 c0 -8 -7 -38 -15 -66 -29 -99 -137 -173 -251 -173 -68 0 -142 19
-193 50 -43 27 -35 35 14 14 21 -9 73 -18 114 -20 42 -2 67 -1 56 2 -11 3 -37
10 -57 15 -51 13 -48 25 6 31 25 3 75 20 112 37 37 17 69 29 71 27 3 -2 -13
-16 -34 -30 -52 -36 -21 -33 44 4 47 27 53 28 43 11 -6 -12 -27 -32 -48 -46
-20 -14 -31 -25 -25 -25 19 0 96 64 120 99 15 22 23 49 23 75 0 30 3 37 10 26
5 -8 10 -22 10 -31z m-1689 -72 c10 -33 14 -56 10 -51 -11 11 -51 121 -51 137
1 21 22 -24 41 -86z m-275 -32 c-17 -62 -32 -110 -34 -105 -6 17 50 220 61
220 2 0 -10 -52 -27 -115z m38 21 c-3 -15 -8 -25 -11 -23 -2 3 -1 17 3 31 3
15 8 25 11 23 2 -3 1 -17 -3 -31z m443 -51 l28 -18 -24 27 c-32 35 -23 41 20
12 55 -36 78 -41 39 -7 -44 38 -36 39 30 4 33 -17 73 -28 111 -31 32 -2 59 -8
59 -13 0 -4 -28 -15 -62 -23 l-63 -16 77 4 c47 3 94 12 122 25 25 11 46 16 46
12 0 -13 -77 -61 -122 -77 -52 -18 -149 -18 -192 0 -42 18 -100 75 -126 126
-28 54 -25 72 4 29 14 -20 37 -44 53 -54z m-145 -136 c19 -30 65 -92 103 -138
81 -99 56 -92 -42 13 -79 84 -163 235 -162 289 0 29 4 24 33 -39 19 -39 49
-95 68 -125z m-311 78 c-47 -94 -47 -86 1 24 18 42 35 72 36 67 2 -5 -15 -46
-37 -91z m-312 79 c-2 -2 -29 -6 -59 -9 -36 -4 -48 -3 -35 3 19 8 103 14 94 6z
m2999 -36 c28 -18 70 -85 60 -96 -2 -2 -28 23 -57 56 -55 64 -56 72 -3 40z
m-2973 0 c4 -6 -11 -10 -37 -10 -27 0 -67 -11 -107 -30 -68 -32 -87 -33 -52
-3 43 37 181 67 196 43z m2519 -122 c17 -80 19 -136 7 -177 -4 -15 -13 29 -25
123 -10 80 -20 156 -22 169 -11 59 26 -47 40 -115z m-1839 -8 c78 -62 133 -84
210 -85 60 0 80 5 140 35 95 47 96 47 45 1 -63 -57 -136 -94 -184 -94 -24 0
-62 11 -93 27 -50 25 -67 24 -41 -2 6 -6 9 -14 6 -18 -10 -9 -86 75 -140 154
-62 92 -73 120 -22 60 21 -25 57 -61 79 -78z m780 91 c81 -6 121 -14 153 -30
23 -12 42 -22 42 -24 0 -4 -110 -7 -220 -6 -159 2 -190 3 -190 10 0 9 49 27
85 32 22 3 18 4 -15 6 -33 1 -41 4 -30 11 18 11 29 11 175 1z m-1179 -90 c-20
-33 -43 -77 -51 -98 -7 -21 -14 -31 -14 -22 -1 24 89 193 97 184 2 -2 -12 -31
-32 -64z m-450 50 c-9 -14 -137 -104 -141 -99 -7 7 68 76 100 92 34 18 49 20
41 7z m32 -37 c-36 -20 -98 -63 -137 -95 -74 -63 -86 -65 -48 -8 16 24 51 49
125 87 114 58 165 72 60 16z m1812 -14 c57 -29 237 -168 265 -204 39 -51 48
-92 29 -133 -29 -59 -41 -57 -55 9 -27 119 -223 318 -315 318 -40 0 -100 -48
-120 -97 -21 -50 -18 -50 40 5 65 61 96 72 142 47 87 -47 224 -205 224 -259 0
-15 -9 -8 -34 29 -61 91 -148 155 -211 155 -34 0 -93 -55 -145 -135 -54 -83
-76 -86 -123 -18 -79 116 -128 153 -197 153 -53 0 -73 -11 -139 -74 -50 -48
-52 -49 -36 -17 42 83 166 181 231 181 28 0 123 -52 124 -68 1 -4 15 -23 31
-42 l31 -35 -16 38 c-18 45 -44 83 -80 116 -14 14 -26 28 -26 33 0 4 37 5 83
2 56 -4 101 -1 142 9 66 16 102 13 155 -13z m-1795 -15 c-11 -8 -64 -59 -117
-113 -77 -76 -98 -92 -98 -75 0 13 20 39 51 67 58 52 168 136 177 136 4 0 -2
-7 -13 -15z m534 -54 c1 -48 -5 -35 -12 24 -4 32 -3 43 3 30 5 -11 9 -35 9
-54z m2072 -31 c6 -36 8 -86 5 -110 -4 -25 -11 -88 -15 -140 -5 -52 -10 -97
-11 -100 -2 -3 -8 38 -15 90 l-12 95 -2 -94 c-1 -76 -3 -92 -13 -82 -10 9 -13
63 -13 202 0 104 3 189 6 189 3 0 14 -28 24 -62 9 -35 19 -67 21 -73 1 -5 1
33 -2 85 -6 108 7 108 27 0z m-2028 15 c3 -36 2 -52 -3 -40 -8 19 -14 113 -6
104 2 -2 6 -31 9 -64z m-164 -7 c-12 -23 -33 -68 -45 -98 -13 -30 -23 -48 -24
-40 0 17 81 192 87 186 3 -2 -6 -24 -18 -48z m-419 28 c0 -2 -26 -25 -57 -51
l-58 -47 53 51 c50 47 62 57 62 47z m150 0 c0 -2 -31 -13 -68 -25 -38 -13 -92
-40 -121 -62 -30 -23 -47 -31 -39 -20 18 25 53 53 95 75 41 21 133 43 133 32z
m1012 -53 c-16 -21 -43 -65 -60 -98 -42 -81 -81 -143 -82 -127 0 7 14 39 30
72 17 33 28 60 26 60 -2 0 -39 -41 -80 -90 -42 -50 -76 -88 -76 -84 0 18 103
149 179 226 86 90 117 109 63 41z m-1141 -40 c-41 -25 -75 -55 -99 -88 -49
-69 -58 -77 -34 -30 25 49 83 106 137 133 66 35 64 25 -4 -15z m940 7 c23 -19
23 -19 3 -20 -11 0 -29 9 -39 20 -15 17 -16 20 -3 20 9 0 26 -9 39 -20z m385
-19 c30 -18 43 -33 137 -151 61 -78 74 -77 161 8 39 38 82 77 96 86 36 23 3
20 -44 -5 l-38 -20 22 31 c26 36 68 60 108 60 69 0 163 -97 208 -215 28 -74
27 -216 -3 -271 -31 -59 -97 -111 -168 -134 -58 -19 -58 -20 -15 -14 109 15
207 89 230 175 7 24 10 76 8 115 -4 81 3 87 22 19 18 -64 8 -154 -23 -210 -14
-25 -22 -43 -17 -40 18 11 59 90 65 128 7 37 20 48 28 25 2 -7 0 -29 -4 -48
-10 -44 -5 -49 11 -10 14 33 37 36 32 4 -2 -16 -1 -16 7 -4 24 36 123 -105
137 -196 7 -50 -12 -92 -59 -128 -65 -50 -109 -59 -277 -59 -238 0 -640 12
-651 19 -7 4 -5 12 4 22 17 20 49 113 42 120 -3 3 -5 0 -5 -6 0 -7 -9 -12 -20
-12 -13 0 -18 -5 -14 -15 4 -8 -1 -17 -10 -21 -9 -3 -16 -17 -16 -30 0 -30
-21 -31 -46 -3 -17 19 -17 22 -2 49 19 33 11 49 -9 20 -10 -15 -21 -19 -35
-14 -14 4 -18 2 -14 -5 10 -16 -2 -31 -19 -25 -26 10 -26 37 1 65 16 17 22 29
15 33 -6 4 -11 2 -11 -3 0 -6 -7 -11 -15 -11 -8 0 -15 8 -15 18 0 18 -58 69
-72 64 -4 -1 -5 5 -1 13 3 9 -1 23 -9 33 -15 17 -38 76 -38 96 0 6 13 -13 28
-43 15 -29 43 -65 62 -79 l35 -26 -26 29 c-71 82 -97 150 -85 228 10 65 22 59
18 -8 -8 -118 91 -235 218 -259 34 -7 33 -6 -15 22 -50 30 -132 110 -154 150
-15 28 -4 28 27 0 l24 -23 -27 50 c-24 45 -26 58 -22 130 2 44 7 89 12 99 6
14 5 17 -4 12 -16 -10 11 55 40 96 26 36 104 88 133 88 12 0 35 -9 52 -19z
m-729 -43 c-2 -13 -4 -5 -4 17 -1 22 1 32 4 23 2 -10 2 -28 0 -40z m1903 -86
c0 -97 5 -154 16 -191 20 -68 4 -90 -20 -28 -31 81 -38 154 -25 260 7 53 16
97 21 97 4 0 8 -62 8 -138z m-2690 63 c-59 -58 -86 -71 -63 -31 8 15 111 96
122 96 3 0 -24 -29 -59 -65z m235 47 c-85 -50 -128 -73 -115 -59 17 18 120 77
135 77 6 0 -3 -8 -20 -18z m2885 8 c0 -5 -2 -10 -4 -10 -3 0 -8 5 -11 10 -3 6
-1 10 4 10 6 0 11 -4 11 -10z m-2559 -27 c-12 -20 -14 -14 -5 12 4 9 9 14 11
11 3 -2 0 -13 -6 -23z m176 -5 c-3 -7 -5 -2 -5 12 0 14 2 19 5 13 2 -7 2 -19
0 -25z m-452 3 c-16 -10 -50 -30 -75 -45 -25 -14 -56 -33 -70 -42 -14 -9 -9
-3 10 14 19 17 60 45 90 61 60 33 94 42 45 12z m535 -112 c-12 -49 -24 -88
-26 -86 -2 2 6 47 18 100 13 53 25 92 26 86 2 -5 -6 -50 -18 -100z m-821 42
c-30 -27 -55 -47 -57 -46 -8 8 34 59 67 80 55 38 50 20 -10 -34z m561 -6 c-10
-33 -19 -53 -19 -44 -1 18 30 112 35 107 2 -2 -5 -31 -16 -63z m167 18 c-3
-10 -5 -4 -5 12 0 17 2 24 5 18 2 -7 2 -21 0 -30z m-407 22 c0 -2 -13 -11 -29
-19 -15 -8 -50 -32 -77 -52 -40 -30 -44 -31 -24 -9 14 15 48 40 75 56 54 31
55 31 55 24z m557 -54 c-7 -62 -41 -166 -58 -177 -6 -3 -4 7 4 23 20 38 47
143 47 182 0 17 3 31 6 31 4 0 4 -27 1 -59z m-907 -51 c-23 -27 -46 -50 -52
-50 -5 0 12 25 38 55 26 31 49 53 52 51 2 -3 -14 -28 -38 -56z m627 8 c-3 -8
-6 -5 -6 6 -1 11 2 17 5 13 3 -3 4 -12 1 -19z m2017 -113 c40 -112 62 -209 27
-120 -36 92 -60 150 -61 145 0 -3 11 -55 25 -115 14 -61 25 -130 24 -155 l-1
-45 -13 60 c-7 33 -27 89 -43 125 -17 36 -33 92 -37 125 -9 79 0 68 19 -23 8
-39 20 -80 26 -89 10 -16 11 -16 4 2 -4 11 -8 49 -9 85 -2 36 -6 83 -9 105 -8
51 1 32 48 -100z m50 -59 c25 -85 34 -188 18 -213 -4 -6 -7 26 -8 70 -1 65 -8
101 -32 172 -18 49 -32 107 -31 130 l1 40 13 -55 c7 -30 24 -95 39 -144z
m-2374 180 c0 -8 -101 -68 -106 -63 -3 3 18 19 48 36 56 32 58 33 58 27z m59
-22 c-25 -27 -285 -161 -295 -151 -3 3 46 30 108 61 62 30 133 69 158 86 55
37 61 38 29 4z m-357 -11 c-11 -16 -40 -46 -63 -68 -52 -48 -33 -19 30 48 51
53 61 60 33 20z m758 -10 c-11 -17 -11 -17 -6 0 3 10 6 24 7 30 0 9 2 9 5 0 3
-7 0 -20 -6 -30z m-169 -65 c-6 -40 -13 -86 -15 -103 -2 -16 -2 4 0 45 3 79
14 144 21 136 3 -2 0 -37 -6 -78z m333 18 c-4 -31 -9 -54 -12 -52 -2 3 -1 30
3 61 3 31 9 55 11 52 3 -2 2 -30 -2 -61z m1670 -296 l5 -65 -10 55 c-6 30 -28
111 -50 180 -22 69 -39 134 -39 145 2 42 90 -252 94 -315z m-2258 285 c-22
-19 -44 -35 -49 -35 -10 0 73 69 83 69 3 0 -13 -15 -34 -34z m-372 -26 c-10
-11 -28 -25 -39 -31 -11 -5 -4 4 15 21 41 36 51 40 24 10z m408 -16 c-16 -21
-40 -47 -53 -58 -13 -11 -1 6 26 38 55 64 73 77 27 20z m2114 -91 c-7 -6 -42
68 -50 103 -3 17 8 1 24 -34 17 -35 28 -66 26 -69z m27 26 c13 -49 21 -88 17
-88 -9 0 -21 35 -40 110 -6 25 -14 54 -17 65 -3 13 -2 17 5 10 5 -5 21 -49 35
-97z m-2509 61 c-10 -12 -41 -39 -69 -61 -40 -32 -37 -28 15 21 66 61 89 79
54 40z m1002 -26 c-31 -59 -46 -81 -46 -68 0 12 58 115 65 115 3 0 -6 -21 -19
-47z m-382 -12 c-4 -23 -9 -40 -11 -37 -3 3 -2 23 2 46 4 23 9 39 11 37 3 -2
2 -23 -2 -46z m-424 9 c-38 -31 -90 -64 -90 -56 0 5 113 86 120 86 3 0 -11
-14 -30 -30z m2610 -19 c0 -15 3 -50 7 -77 l8 -49 5 40 c6 40 6 40 18 -25 14
-76 6 -212 -14 -252 -20 -40 -27 -35 -20 15 7 42 7 42 -7 12 -8 -16 -17 -47
-21 -67 -4 -20 -16 -47 -27 -60 -18 -21 -20 -21 -15 -3 3 11 8 89 12 174 7
158 17 178 34 67 5 -30 6 12 3 102 -4 110 -3 152 6 152 6 0 11 -13 11 -29z
m-2565 -1 c-37 -41 -106 -78 -158 -85 -71 -10 -101 -27 -176 -99 l-65 -61 45
54 c57 70 114 106 192 120 45 8 77 22 117 50 64 46 70 48 45 21z m149 -84
c-20 -47 -40 -89 -45 -92 -5 -3 7 32 27 78 20 46 38 89 41 96 3 7 7 11 9 9 3
-2 -12 -43 -32 -91z m462 40 c-21 -49 -28 -46 -9 4 9 22 18 38 20 36 2 -2 -3
-20 -11 -40z m-891 11 c-16 -12 -54 -44 -84 -72 -43 -39 -50 -43 -33 -18 22
31 77 78 117 101 32 18 32 13 0 -11z m95 13 c-35 -24 -54 -31 -30 -11 14 11
30 21 35 21 6 0 3 -5 -5 -10z m259 -19 c-33 -45 -89 -71 -178 -81 -92 -10
-107 -17 -169 -74 -44 -39 -45 -40 -23 -8 39 56 90 83 178 93 105 13 134 23
173 64 41 42 48 45 19 6z m876 2 c-8 -35 -26 -55 -19 -22 9 39 13 49 20 49 3
0 3 -12 -1 -27z m-724 -30 c-12 -20 -14 -14 -5 12 4 9 9 14 11 11 3 -2 0 -13
-6 -23z m136 -5 c-3 -7 -5 -2 -5 12 0 14 2 19 5 13 2 -7 2 -19 0 -25z m524
-49 c-6 -16 -10 -18 -10 -7 -1 22 12 55 16 42 2 -6 -1 -22 -6 -35z m-1228 -11
c-6 -7 -27 -35 -48 -63 -45 -60 -55 -71 -30 -30 24 40 75 105 82 105 3 0 1 -6
-4 -12z m764 -85 c-2 -16 -4 -3 -4 27 0 30 2 43 4 28 2 -16 2 -40 0 -55z m541
45 c16 -16 15 -28 -3 -28 -8 0 -15 2 -15 4 0 2 -3 11 -6 20 -7 19 7 21 24 4z
m-1093 -13 c-5 -2 -23 -6 -38 -10 -16 -3 -52 -27 -79 -53 -28 -26 -46 -38 -40
-27 12 23 58 68 87 83 11 6 34 11 50 11 17 0 26 -2 20 -4z m240 -39 c-25 -33
-82 -76 -100 -76 -4 0 16 18 44 41 28 23 56 50 62 61 6 11 13 17 16 15 3 -3
-7 -22 -22 -41z m799 28 c9 -22 8 -24 -9 -24 -8 0 -15 9 -15 20 0 24 15 27 24
4z m-46 -37 c2 -10 -3 -17 -12 -17 -10 0 -16 9 -16 21 0 24 23 21 28 -4z m126
-13 c4 -9 4 -19 2 -21 -8 -8 -26 8 -26 23 0 19 16 18 24 -2z m-843 -42 c-34
-66 -68 -99 -122 -117 -31 -11 -69 -34 -95 -59 -24 -24 -44 -40 -44 -36 0 17
91 91 130 105 54 19 101 63 125 116 10 22 20 37 22 35 3 -2 -5 -22 -16 -44z
m2307 -61 c-4 -52 -2 -68 4 -52 5 14 10 48 11 77 3 71 17 57 17 -17 0 -65 -23
-123 -67 -167 -14 -14 -34 -43 -44 -66 -17 -35 -19 -37 -14 -11 5 29 5 29 -22
-11 -16 -22 -48 -70 -72 -107 -24 -37 -47 -65 -51 -62 -4 3 -13 -9 -19 -27 -6
-17 -18 -39 -27 -47 -8 -9 -21 -25 -29 -36 -13 -19 -14 -19 -9 5 4 20 1 18
-14 -10 -11 -19 -23 -33 -27 -30 -4 3 -13 -6 -20 -20 -13 -22 -14 -23 -15 -5
-1 14 -7 8 -20 -20 -10 -22 -19 -36 -19 -31 -1 4 -10 -2 -21 -15 -10 -13 -19
-21 -20 -17 0 4 -14 -6 -32 -22 -17 -16 -34 -27 -36 -25 -3 3 -11 -3 -18 -13
-23 -32 -21 -7 4 48 23 50 26 53 32 30 6 -24 6 -24 19 8 7 18 19 32 26 32 7 0
16 7 19 16 3 8 10 13 15 10 5 -4 17 14 27 39 12 32 20 42 25 33 7 -10 9 -8 9
6 0 12 5 16 14 13 10 -4 18 4 25 21 8 22 10 23 11 7 1 -13 10 -3 25 30 15 32
24 43 25 30 1 -13 10 -2 25 30 15 33 24 43 25 30 1 -12 9 0 20 30 17 46 19 48
20 20 2 -27 4 -25 17 18 8 27 24 58 35 69 l21 21 -6 -34 c-5 -30 -3 -28 17 16
18 39 24 46 28 30 7 -31 21 111 14 146 -3 17 -2 28 4 24 5 -3 12 -27 16 -53
l8 -47 12 60 c7 33 13 83 14 110 0 41 3 47 12 31 6 -11 9 -49 6 -95z m-1520
70 c3 -8 -1 -12 -9 -9 -7 2 -15 10 -17 17 -3 8 1 12 9 9 7 -2 15 -10 17 -17z
m-1085 -21 c-39 -22 -65 -48 -98 -98 -51 -76 -60 -73 -15 5 40 69 100 117 155
122 6 0 -14 -13 -42 -29z m634 -2 c-3 -8 -6 -5 -6 6 -1 11 2 17 5 13 3 -3 4
-12 1 -19z m284 -1 c-1 -12 -15 -9 -19 4 -3 6 1 10 8 8 6 -3 11 -8 11 -12z
m127 -6 c3 -8 -1 -12 -9 -9 -7 2 -15 10 -17 17 -3 8 1 12 9 9 7 -2 15 -10 17
-17z m151 -20 c-16 -5 -33 15 -24 30 6 9 12 7 22 -7 9 -13 10 -20 2 -23z
m-866 -56 c-36 -67 -52 -83 -163 -158 -35 -24 -88 -71 -117 -105 -64 -76 -70
-69 -8 10 30 38 76 77 144 122 55 36 102 74 105 84 7 21 63 112 70 112 2 0
-12 -29 -31 -65z m847 46 c13 -26 13 -31 -5 -31 -12 0 -35 28 -35 44 0 14 30
4 40 -13z m-183 -27 c-9 -9 -28 6 -21 18 4 6 10 6 17 -1 6 -6 8 -13 4 -17z
m113 5 c0 -11 -4 -17 -10 -14 -5 3 -10 13 -10 21 0 8 5 14 10 14 6 0 10 -9 10
-21z m-417 -44 c5 -28 4 -34 -3 -20 -8 19 -14 73 -6 64 2 -2 6 -22 9 -44z
m-302 -32 c-16 -30 -63 -69 -120 -99 -55 -29 -153 -117 -205 -184 -27 -34 -27
-34 -12 -4 30 61 108 134 203 190 51 31 103 69 115 85 24 32 34 38 19 12z m59
-28 c-16 -47 -23 -40 -8 8 6 20 13 35 16 33 2 -3 -1 -21 -8 -41z m630 35 c0
-5 -2 -10 -4 -10 -3 0 -8 5 -11 10 -3 6 -1 10 4 10 6 0 11 -4 11 -10z m222
-25 c0 -5 -5 -11 -11 -13 -6 -2 -11 4 -11 13 0 9 5 15 11 13 6 -2 11 -8 11
-13z m-1242 2 c0 -1 -26 -27 -57 -57 -32 -30 -47 -41 -33 -25 33 42 90 93 90
82z m1305 -27 c3 -5 -1 -10 -9 -10 -9 0 -16 5 -16 10 0 6 4 10 9 10 6 0 13 -4
16 -10z m-75 -10 c0 -5 -2 -10 -4 -10 -3 0 -8 5 -11 10 -3 6 -1 10 4 10 6 0
11 -4 11 -10z m1059 -26 c-42 -44 -156 -101 -229 -114 -53 -11 -230 -10 -230
0 0 3 -31 4 -70 4 -40 -1 -70 3 -70 9 0 6 -4 6 -12 0 -18 -15 -78 -14 -78 0 0
8 -2 9 -8 1 -9 -14 -115 -13 -124 1 -5 6 -8 6 -8 -2 0 -14 -32 -18 -43 -6 -10
10 -57 10 -57 0 0 -11 -231 0 -244 13 -5 5 -18 10 -28 10 -35 0 -168 81 -168
102 0 4 20 -5 45 -19 98 -54 174 -62 370 -38 151 19 333 19 500 0 235 -26 348
-15 430 44 55 40 66 38 24 -5z m-1887 -26 c-25 -54 -52 -82 -105 -109 -23 -12
-67 -39 -97 -62 -49 -36 -52 -37 -26 -9 16 17 59 47 97 67 73 38 94 60 123
124 11 23 21 39 23 37 3 -2 -4 -24 -15 -48z m84 -22 c-10 -19 -32 -44 -49 -57
-32 -23 -32 -23 4 18 21 22 40 51 44 63 4 12 10 19 13 15 3 -3 -2 -21 -12 -39z
m2224 7 c0 -16 -5 -35 -10 -43 -7 -11 -10 -4 -10 28 0 23 5 42 10 42 6 0 10
-12 10 -27z m-2537 -68 c-15 -19 -29 -32 -32 -29 -4 4 48 64 56 64 2 0 -9 -16
-24 -35z m684 -12 c-3 -10 -5 -4 -5 12 0 17 2 24 5 18 2 -7 2 -21 0 -30z
m1770 -42 c6 -47 -17 -119 -47 -146 -25 -23 -25 -19 1 40 14 31 21 68 21 107
0 68 16 67 25 -1z m-2187 24 c0 -9 -75 -43 -133 -59 -46 -13 -71 -30 -129 -84
-42 -39 -63 -54 -50 -36 47 69 140 134 189 134 10 0 41 11 68 24 59 29 55 27
55 21z m191 -13 c-5 -9 -19 -26 -32 -37 -17 -15 -15 -10 7 17 32 41 40 48 25
20z m1933 -91 c-6 -6 -11 1 -18 29 l-7 25 15 -25 c8 -14 12 -27 10 -29z
m-1974 -5 c-28 -26 -280 -200 -280 -193 0 9 283 212 300 216 2 1 -7 -10 -20
-23z m1477 -23 c-102 -110 -197 -202 -197 -191 0 33 56 98 136 160 49 37 91
68 93 68 2 0 -12 -17 -32 -37z m-1637 23 c0 -2 -26 -20 -57 -41 -32 -21 -80
-56 -108 -78 -47 -38 -48 -39 -20 -8 17 19 63 56 104 82 72 48 81 53 81 45z
m2080 -51 c0 -5 -5 -3 -10 5 -5 8 -10 20 -10 25 0 6 5 3 10 -5 5 -8 10 -19 10
-25z m-799 8 c-6 -10 -49 -58 -97 -108 -83 -86 -90 -80 -16 15 55 70 95 110
109 110 10 0 11 -5 4 -17z m132 3 c15 -2 39 -3 53 -4 24 -2 25 -4 13 -19 -13
-17 -12 -17 6 -2 11 9 33 19 50 22 28 5 26 1 -30 -51 -33 -32 -76 -80 -95
-109 -50 -75 -90 -89 -49 -17 l22 39 -37 -42 c-21 -24 -44 -43 -52 -43 -20 0
-18 7 22 64 37 52 23 40 -49 -42 -25 -30 -47 -41 -47 -25 0 3 12 22 27 42 l26
36 -41 -39 c-71 -68 -57 -33 32 78 48 59 86 108 86 111 0 3 -41 -40 -90 -95
-50 -54 -95 -102 -100 -105 -25 -15 -4 18 71 114 l82 103 36 -7 c20 -4 48 -8
64 -9z m-1393 1 c0 -1 -24 -25 -52 -52 l-53 -50 50 53 c46 48 55 57 55 49z
m130 -15 c-14 -9 -55 -45 -92 -79 -78 -73 -102 -84 -38 -17 41 42 137 115 150
113 3 0 -6 -8 -20 -17z m150 -29 c-25 -21 -60 -53 -79 -73 -18 -19 -29 -26
-23 -15 12 23 75 84 112 109 42 28 37 17 -10 -21z m872 0 c-17 -21 -54 -60
-83 -88 l-52 -50 43 63 c56 81 85 112 105 112 13 0 10 -8 -13 -37z m-110 -20
c-23 -33 -69 -75 -57 -53 18 34 57 80 66 80 6 0 2 -12 -9 -27z m-62 13 c0 -2
-7 -9 -15 -16 -13 -11 -14 -10 -9 4 5 14 24 23 24 12z m591 -24 c-5 -10 -18
-25 -27 -33 -16 -12 -17 -12 -9 1 10 18 37 50 42 50 2 0 -1 -8 -6 -18z m-1471
4 c0 -2 -19 -19 -42 -36 l-43 -32 40 36 c40 36 45 39 45 32z m158 -43 c-14
-16 -44 -62 -66 -103 -62 -113 -80 -129 -25 -21 45 88 90 151 109 151 4 0 -4
-12 -18 -27z m-154 -124 c-10 -12 -32 -28 -49 -36 -36 -18 -31 -12 21 27 46
35 54 37 28 9z m1817 -16 c-9 -16 -10 -14 -11 12 0 21 3 26 11 18 8 -8 8 -16
0 -30z m-1557 -13 c-10 -16 -35 -49 -57 -72 -42 -47 -33 -30 28 50 44 58 55
67 29 22z m1113 -2 c-6 -22 -6 -22 13 2 27 35 25 10 -3 -31 -13 -19 -30 -34
-38 -34 -8 0 -28 -10 -44 -21 -53 -36 -59 -39 -52 -21 6 16 5 16 -19 0 -24
-15 -59 -19 -206 -24 -56 -1 -114 16 -122 36 -3 8 -1 15 4 15 6 0 10 -3 10 -7
0 -5 29 -9 65 -10 61 -3 65 -2 66 20 1 16 2 18 6 5 2 -10 9 -18 15 -18 6 0 17
8 24 18 13 16 13 16 14 0 0 -28 31 -19 43 12 4 12 6 12 6 -1 1 -25 29 -31 36
-8 8 26 25 25 18 -1 -6 -21 -5 -21 31 1 20 11 40 28 46 38 8 14 9 13 10 -6 0
-31 24 -20 51 23 24 39 34 44 26 12z m-1191 -21 c-25 -33 -99 -97 -112 -97 -6
0 127 129 134 130 2 0 -8 -15 -22 -33z m202 6 c-26 -61 -93 -144 -133 -165
-11 -6 3 13 31 43 28 30 63 75 78 102 31 52 42 61 24 20z m-75 -14 c-10 -17
-24 -36 -32 -42 -8 -7 -2 7 14 31 32 49 45 57 18 11z m487 -9 c6 -11 8 -20 6
-20 -3 0 -10 9 -16 20 -6 11 -8 20 -6 20 3 0 10 -9 16 -20z m58 -5 c-3 -3 -9
2 -12 12 -6 14 -5 15 5 6 7 -7 10 -15 7 -18z m40 -10 c-3 -3 -9 2 -12 12 -6
14 -5 15 5 6 7 -7 10 -15 7 -18z m-49 -30 c0 -5 -6 -1 -14 9 -8 11 -15 24 -15
30 0 5 7 1 15 -10 8 -10 14 -23 14 -29z m1249 -13 c-6 -24 -13 -41 -15 -38 -2
2 1 23 7 46 6 23 13 40 15 38 2 -2 -1 -23 -7 -46z m-1214 -1 c-6 -6 -24 19
-24 34 1 6 7 1 15 -9 8 -11 12 -22 9 -25z m-474 -31 c-17 -33 -33 -60 -35 -60
-3 0 8 27 25 60 17 33 33 60 35 60 3 0 -8 -27 -25 -60z m1176 -18 c-9 -17 -21
-34 -27 -38 -6 -3 0 12 12 34 27 47 38 49 15 4z m-1266 -41 c-20 -30 -40 -44
-23 -18 27 42 38 56 41 52 2 -2 -6 -18 -18 -34z m1321 -28 c-12 -20 -14 -14
-5 12 4 9 9 14 11 11 3 -2 0 -13 -6 -23z m-980 -184 c-8 -20 -10 -13 -10 37
-1 34 2 77 7 95 6 28 7 22 10 -37 1 -38 -2 -81 -7 -95z m919 131 c-6 -11 -13
-20 -16 -20 -2 0 0 9 6 20 6 11 13 20 16 20 2 0 0 -9 -6 -20z m-149 -34 c-13
-32 -21 -34 -15 -3 3 12 -4 5 -17 -18 -29 -55 -76 -103 -124 -127 -44 -22 -42
-19 27 35 26 21 61 60 79 87 18 27 36 47 40 44 5 -3 9 0 9 7 0 7 2 10 5 7 3
-3 1 -17 -4 -32z m59 16 c0 -27 -57 -108 -93 -134 -27 -19 -24 -14 15 30 26
29 53 69 60 88 14 38 18 42 18 16z m-990 -38 c-11 -29 -40 -73 -40 -61 0 11
39 87 45 87 2 0 0 -12 -5 -26z m1054 14 c-24 -42 -77 -96 -115 -116 l-44 -24
35 28 c19 15 55 49 80 75 47 50 56 58 44 37z m-263 -47 c-12 -17 -36 -40 -54
-53 -26 -18 -23 -12 18 34 53 59 71 69 36 19z m-546 -21 c-4 -23 -9 -39 -11
-37 -3 2 -2 23 2 46 4 23 9 40 11 37 3 -3 2 -23 -2 -46z m145 2 c0 -5 -7 -17
-15 -28 -14 -18 -14 -17 -4 9 12 27 19 34 19 19z m180 5 c0 -2 -17 -19 -37
-38 l-38 -34 34 38 c33 34 41 42 41 34z"/>
<path d="M2878 4523 c7 -3 16 -2 19 1 4 3 -2 6 -13 5 -11 0 -14 -3 -6 -6z"/>
<path d="M2848 4483 c6 -2 18 -2 25 0 6 3 1 5 -13 5 -14 0 -19 -2 -12 -5z"/>
<path d="M2873 4391 c-65 -22 -122 -61 -160 -109 -45 -57 -49 -70 -12 -36 90
82 188 139 263 154 l41 8 -40 1 c-22 0 -63 -8 -92 -18z"/>
<path d="M3038 4343 c7 -3 16 -2 19 1 4 3 -2 6 -13 5 -11 0 -14 -3 -6 -6z"/>
<path d="M3015 4199 c-51 -12 -127 -40 -122 -45 5 -5 227 46 227 52 0 7 -62 3
-105 -7z"/>
<path d="M3078 4153 c6 -2 18 -2 25 0 6 3 1 5 -13 5 -14 0 -19 -2 -12 -5z"/>
<path d="M3350 4135 c14 -8 30 -14 35 -14 6 0 -1 6 -15 14 -14 8 -29 14 -35
14 -5 0 1 -6 15 -14z"/>
<path d="M3425 4055 c22 -18 86 -53 70 -38 -5 6 -28 20 -50 32 -22 13 -31 15
-20 6z"/>
<path d="M3476 3886 c28 -13 71 -41 95 -62 43 -39 43 -39 20 -7 -25 37 -90 79
-136 88 -21 4 -15 -2 21 -19z"/>
<path d="M2124 4087 c16 -20 30 -37 33 -37 7 0 -36 58 -49 66 -7 4 1 -9 16
-29z"/>
<path d="M2673 3593 c9 -2 23 -2 30 0 6 3 -1 5 -18 5 -16 0 -22 -2 -12 -5z"/>
<path d="M2998 3503 c12 -2 30 -2 40 0 9 3 -1 5 -23 4 -22 0 -30 -2 -17 -4z"/>
<path d="M2255 3491 c71 -15 125 -19 125 -10 0 5 -15 9 -34 9 -18 0 -55 2 -82
5 -47 4 -47 4 -9 -4z"/>
<path d="M2868 3493 c7 -3 16 -2 19 1 4 3 -2 6 -13 5 -11 0 -14 -3 -6 -6z"/>
<path d="M2128 3473 c7 -3 16 -2 19 1 4 3 -2 6 -13 5 -11 0 -14 -3 -6 -6z"/>
<path d="M2513 3433 c9 -2 25 -2 35 0 9 3 1 5 -18 5 -19 0 -27 -2 -17 -5z"/>
<path d="M3200 3427 c12 -12 111 -57 105 -48 -3 6 -18 17 -33 25 -30 15 -80
31 -72 23z"/>
<path d="M2283 3413 c9 -2 25 -2 35 0 9 3 1 5 -18 5 -19 0 -27 -2 -17 -5z"/>
<path d="M2473 2643 c15 -2 37 -2 50 0 12 2 0 4 -28 4 -27 0 -38 -2 -22 -4z"/>
<path d="M1696 3202 c-3 -6 -1 -14 5 -17 14 -9 20 -2 10 14 -6 8 -11 9 -15 3z"/>
<path d="M1609 3153 c-13 -16 -12 -17 4 -4 9 7 17 15 17 17 0 8 -8 3 -21 -13z"/>
<path d="M1642 3118 c-7 -7 -11 -23 -11 -37 l2 -26 4 25 c3 14 10 31 15 38 13
15 6 16 -10 0z"/>
<path d="M2475 2450 c3 -5 12 -10 20 -10 8 0 17 5 20 10 4 6 -5 10 -20 10 -15
0 -24 -4 -20 -10z"/>
<path d="M3532 2285 c0 -16 2 -22 5 -12 2 9 2 23 0 30 -3 6 -5 -1 -5 -18z"/>
<path d="M2165 2290 c-3 -6 1 -7 9 -4 18 7 21 14 7 14 -6 0 -13 -4 -16 -10z"/>
<path d="M2198 2273 c7 -3 16 -2 19 1 4 3 -2 6 -13 5 -11 0 -14 -3 -6 -6z"/>
<path d="M2158 2226 c-46 -35 -58 -53 -58 -84 0 -9 9 1 19 24 21 46 61 67 61
32 0 -14 5 -18 16 -14 9 3 30 7 47 7 l32 2 -37 10 c-47 13 -53 43 -10 50 l27
4 -26 2 c-16 0 -44 -12 -71 -33z"/>
<path d="M2139 2164 c-5 -15 -8 -28 -7 -29 8 -7 48 16 47 27 0 10 -2 10 -6 1
-8 -21 -26 -15 -20 7 7 29 -2 25 -14 -6z"/>
<path d="M2250 2176 c-64 -21 -101 -112 -66 -162 8 -11 53 -44 101 -73 98 -60
120 -88 129 -169 9 -80 26 -102 26 -35 0 28 4 54 9 57 4 3 14 39 21 79 16 97
5 135 -55 178 -40 29 -65 64 -65 93 0 7 -15 19 -33 28 -26 12 -39 13 -67 4z"/>
<path d="M2621 2100 c-101 -90 -96 -79 -105 -255 l-4 -90 19 36 c25 50 70 85
159 126 129 59 160 106 120 188 -20 41 -60 75 -89 75 -6 0 -51 -36 -100 -80z"/>
<path d="M2122 2085 c0 -16 2 -22 5 -12 2 9 2 23 0 30 -3 6 -5 -1 -5 -18z"/>
<path d="M2350 1570 c-15 -28 -1 -49 17 -25 15 22 17 45 3 45 -5 0 -14 -9 -20
-20z"/>
<path d="M2990 1549 c0 -18 2 -19 15 -9 8 7 15 16 15 21 0 5 -7 9 -15 9 -9 0
-15 -9 -15 -21z"/>
<path d="M3066 1561 c-4 -7 -5 -15 -2 -18 9 -9 19 4 14 18 -4 11 -6 11 -12 0z"/>
<path d="M2905 1547 c-4 -10 -5 -21 -1 -24 10 -10 18 4 13 24 -4 17 -4 17 -12
0z"/>
<path d="M2780 1539 c0 -5 5 -7 10 -4 6 3 10 8 10 11 0 2 -4 4 -10 4 -5 0 -10
-5 -10 -11z"/>
<path d="M3440 1542 c0 -7 -9 -21 -21 -33 -11 -11 -19 -25 -17 -31 3 -7 15 5
27 26 13 20 21 40 17 43 -3 4 -6 1 -6 -5z"/>
<path d="M4080 2336 c0 -2 8 -10 18 -17 15 -13 16 -12 3 4 -13 16 -21 21 -21
13z"/>
<path d="M4150 2196 c0 -2 8 -10 18 -17 15 -13 16 -12 3 4 -13 16 -21 21 -21
13z"/>
<path d="M4099 2163 c21 -41 138 -143 164 -143 5 0 -3 10 -19 22 -16 11 -58
49 -93 82 -35 34 -58 51 -52 39z"/>
<path d="M3976 2047 c3 -10 9 -15 12 -12 3 3 0 11 -7 18 -10 9 -11 8 -5 -6z"/>
<path d="M4116 2030 c31 -51 68 -100 72 -95 6 6 -44 79 -66 97 -13 11 -14 11
-6 -2z"/>
<path d="M4335 2012 c18 -18 129 -76 121 -64 -4 7 -35 26 -69 43 -34 17 -57
27 -52 21z"/>
<path d="M4070 1994 c0 -10 90 -139 107 -154 4 -3 -6 18 -21 45 -30 56 -85
126 -86 109z"/>
<path d="M3964 1970 c30 -100 51 -152 54 -132 2 12 -10 51 -27 85 -17 34 -29
55 -27 47z"/>
<path d="M4040 1958 c0 -2 7 -25 15 -52 17 -56 19 -78 5 -56 -15 23 -12 9 15
-68 14 -39 25 -94 25 -121 0 -76 17 -70 19 6 1 53 -6 91 -34 180 -20 62 -39
113 -41 113 -2 0 -4 -1 -4 -2z"/>
<path d="M4318 1895 c11 -16 51 -90 90 -163 49 -95 71 -128 76 -116 4 11 -9
42 -38 88 -24 39 -53 89 -64 111 -11 22 -35 56 -52 75 -28 31 -30 32 -12 5z"/>
<path d="M4425 1896 c17 -13 32 -22 35 -19 7 6 -39 43 -54 43 -6 0 3 -11 19
-24z"/>
<path d="M4250 1894 c0 -14 77 -131 92 -140 15 -9 -37 85 -67 121 -13 17 -24
25 -25 19z"/>
<path d="M3940 1845 c0 -23 9 -67 20 -99 12 -31 25 -90 30 -129 8 -69 8 -67 6
38 -3 93 -7 120 -29 170 l-26 60 -1 -40z"/>
<path d="M4520 1834 c19 -22 36 -40 38 -38 7 5 -21 40 -46 58 -22 17 -21 13 8
-20z"/>
<path d="M4120 1835 c0 -14 32 -79 50 -102 28 -36 25 -23 -10 47 -27 53 -40
71 -40 55z"/>
<path d="M4238 1786 c15 -24 29 -42 31 -40 4 4 -47 84 -54 84 -2 0 8 -20 23
-44z"/>
<path d="M4448 1779 c17 -30 37 -67 45 -82 11 -21 16 -24 20 -13 4 9 -12 42
-34 75 -52 78 -71 90 -31 20z"/>
<path d="M4493 1803 c10 -11 21 -37 24 -58 l6 -38 14 28 c13 24 13 29 -4 47
-10 11 -27 25 -38 30 -19 11 -19 10 -2 -9z"/>
<path d="M4053 1625 c0 -68 2 -91 4 -52 2 39 8 65 13 62 6 -4 7 7 3 27 -16 84
-21 75 -20 -37z"/>
<path d="M4234 1693 c3 -10 12 -51 21 -91 8 -40 22 -85 30 -100 15 -27 15 -27
9 13 -6 45 -53 195 -60 195 -3 0 -3 -8 0 -17z"/>
<path d="M3912 1660 c-11 -36 -18 -169 -8 -159 5 5 28 191 24 195 -2 1 -9 -15
-16 -36z"/>
<path d="M4147 1665 c-11 -63 -8 -102 7 -114 11 -9 13 1 9 61 -6 94 -8 101
-16 53z"/>
<path d="M4191 1674 c0 -11 3 -14 6 -6 3 7 2 16 -1 19 -3 4 -6 -2 -5 -13z"/>
<path d="M4383 1675 c3 -11 13 -53 22 -94 17 -70 19 -72 31 -50 20 36 17 49
-22 109 -20 30 -34 46 -31 35z"/>
<path d="M3860 1607 c0 -23 -6 -67 -14 -97 -16 -62 -14 -78 3 -28 14 38 27
168 17 168 -3 0 -6 -19 -6 -43z"/>
<path d="M3821 1624 c0 -11 3 -14 6 -6 3 7 2 16 -1 19 -3 4 -6 -2 -5 -13z"/>
<path d="M4205 1566 c3 -44 10 -76 20 -85 19 -20 19 -12 -5 79 l-20 75 5 -69z"/>
<path d="M4315 1605 c4 -11 10 -62 14 -113 5 -51 10 -95 13 -98 8 -7 45 47 53
77 4 15 -2 42 -14 69 l-20 45 5 -45 4 -45 -20 45 c-11 25 -25 54 -30 65 l-11
20 6 -20z"/>
<path d="M3957 1545 c3 -38 7 -72 9 -74 8 -8 2 95 -6 119 -5 15 -6 -2 -3 -45z"/>
<path d="M3810 1578 c0 -9 -27 -69 -59 -134 -33 -66 -63 -131 -66 -146 -6 -23
-4 -26 13 -21 14 3 22 17 27 41 4 20 22 66 40 103 36 70 62 155 51 166 -3 4
-6 -1 -6 -9z"/>
<path d="M4090 1546 c0 -5 11 -28 24 -50 31 -54 64 -164 73 -249 l8 -67 27 34
c24 30 26 37 15 65 -13 37 -23 39 -30 9 -4 -12 -9 -19 -13 -16 -3 4 -1 23 6
42 11 34 9 41 -26 104 -44 80 -84 140 -84 128z"/>
<path d="M4066 1480 c4 -14 20 -50 36 -80 16 -30 26 -44 22 -30 -4 14 -20 50
-36 80 -16 30 -26 44 -22 30z"/>
<path d="M3920 1437 c0 -20 4 -37 10 -37 5 0 7 14 3 33 -8 45 -13 47 -13 4z"/>
<path d="M4035 1445 c3 -16 23 -59 44 -95 50 -85 53 -94 60 -170 l6 -64 18 27
c17 26 17 30 -2 99 -11 40 -20 66 -20 58 -1 -15 -72 90 -98 145 l-14 30 6 -30z"/>
<path d="M4286 1408 c35 -65 33 -63 40 -55 8 7 -46 107 -58 107 -5 0 3 -24 18
-52z"/>
<path d="M3971 1428 c0 -15 -5 -38 -11 -52 -7 -19 -5 -30 8 -46 16 -20 17 -19
14 32 -4 70 -9 101 -11 66z"/>
<path d="M4006 1395 c3 -28 1 -61 -4 -74 -7 -19 -3 -35 16 -68 19 -34 24 -60
26 -116 0 -39 -3 -85 -7 -102 l-8 -30 30 30 31 30 -20 65 c-11 36 -25 103 -31
150 -6 47 -18 103 -25 125 l-14 40 6 -50z"/>
<path d="M3686 1415 c-9 -26 -7 -32 5 -12 6 10 9 21 6 23 -2 3 -7 -2 -11 -11z"/>
<path d="M4235 1372 c12 -31 25 -65 29 -75 7 -22 26 -13 26 12 0 18 -51 104
-68 115 -5 3 1 -20 13 -52z"/>
<path d="M3825 1328 c-8 -28 -15 -82 -15 -118 0 -41 -8 -90 -20 -125 -25 -74
-20 -94 9 -37 16 32 25 73 31 152 5 60 12 125 16 144 10 53 -3 43 -21 -16z"/>
<path d="M3881 1354 c-1 -12 13 -66 30 -120 25 -81 30 -113 27 -176 -3 -86 5
-93 21 -17 13 58 10 75 -29 184 -15 44 -33 96 -38 115 -7 23 -10 28 -11 14z"/>
<path d="M3944 1264 c8 -22 21 -56 30 -76 21 -49 21 -150 0 -191 -9 -18 -28
-44 -42 -59 -39 -42 -23 -41 26 1 36 30 45 46 53 85 16 87 -18 226 -65 265
-14 12 -15 10 -2 -25z"/>
<path d="M4060 1288 c1 -36 47 -210 54 -200 7 12 -8 114 -25 169 -11 34 -29
54 -29 31z"/>
<path d="M3867 1158 c-7 -81 -22 -111 -76 -161 -23 -21 -41 -44 -41 -53 0 -8
-14 -45 -31 -82 -17 -37 -37 -85 -45 -106 l-15 -40 25 23 c13 12 38 61 56 109
46 126 51 134 44 82 -3 -25 -16 -71 -29 -102 -24 -62 -21 -71 13 -35 24 26 42
69 42 102 0 13 5 27 12 31 8 5 9 -7 5 -45 l-6 -53 32 25 c28 22 32 30 32 75 0
28 4 54 8 58 4 4 7 -8 7 -26 0 -51 20 -23 25 35 l4 48 -32 -30 c-34 -32 -77
-58 -77 -47 0 4 18 26 40 50 35 39 40 49 39 91 0 27 -6 64 -13 83 l-13 35 -6
-67z"/>
<path d="M3751 1108 c-12 -40 -35 -95 -50 -123 -15 -27 -38 -95 -50 -150 -12
-55 -26 -110 -31 -122 -7 -17 -6 -21 5 -17 8 4 22 31 31 62 9 32 32 89 50 127
30 63 80 262 72 287 -2 5 -14 -23 -27 -64z"/>
<path d="M3586 1115 c-9 -26 -7 -32 5 -12 6 10 9 21 6 23 -2 3 -7 -2 -11 -11z"/>
<path d="M3420 982 c0 -17 -4 -52 -9 -79 -6 -26 -15 -83 -21 -127 -13 -98 -48
-166 -113 -218 -53 -41 -53 -45 -4 -25 55 23 121 140 155 273 14 59 17 64 20
36 7 -68 -33 -190 -85 -261 -17 -23 -17 -24 2 -13 36 18 56 49 80 119 20 57
24 63 24 35 1 -18 -6 -49 -14 -70 l-15 -37 20 23 c11 13 24 40 30 60 12 45 13
115 1 108 -5 -3 -7 16 -5 42 4 39 3 43 -6 23 -6 -13 -13 -21 -17 -18 -3 4 0
20 7 37 14 34 2 76 -31 106 -18 16 -19 16 -19 -14z"/>
</g>
</svg>
